<svg width="212" height="50" viewBox="0 0 212 50" xmlns="http://www.w3.org/2000/svg"><title>Logo</title><g fill="#FFF" fill-rule="evenodd"><path d="M90.098 40.258c4.468 0 7.96-2.233 7.96-6.742v-.08c0-3.86-3.533-5.28-6.66-6.256-2.519-.812-4.834-1.462-4.834-3.046v-.081c0-1.219 1.097-2.112 3.006-2.112 1.503 0 3.29.569 5.036 1.462.325.163.569.244.975.244 1.137 0 2.03-.853 2.03-1.99 0-.853-.487-1.503-1.177-1.869-2.072-1.096-4.468-1.746-6.742-1.746-4.265 0-7.636 2.477-7.636 6.539v.081c0 4.102 3.534 5.402 6.702 6.296 2.518.771 4.792 1.34 4.792 3.005v.081c0 1.422-1.218 2.315-3.33 2.315-1.95 0-4.102-.69-6.174-2.071a2.144 2.144 0 0 0-1.056-.284c-1.137 0-1.99.893-1.99 1.99 0 .812.406 1.421.934 1.706 2.478 1.706 5.443 2.558 8.164 2.558zm19.78-.04c1.3 0 2.315-.203 3.37-.569.691-.284 1.3-1.015 1.3-1.909 0-1.137-.974-2.03-2.071-2.03-.163 0-.65.121-1.219.121-1.665 0-2.64-.771-2.64-2.68V22.63h3.859c1.178 0 2.153-.934 2.153-2.112 0-1.177-.975-2.112-2.153-2.112h-3.859v-3.655a2.444 2.444 0 0 0-2.436-2.437c-1.381 0-2.478 1.097-2.478 2.437v3.655h-.812a2.098 2.098 0 0 0-2.112 2.112c0 1.178.934 2.112 2.112 2.112h.812v11.291c0 4.712 2.559 6.296 6.174 6.296zm12.59-12.59c.447-3.331 2.56-5.646 5.565-5.646 3.249 0 5.117 2.477 5.442 5.645h-11.007zm13.85 9.869c.366-.366.65-.894.65-1.503 0-1.137-.853-1.99-1.95-1.99-.568 0-.893.162-1.259.446-1.38 1.138-3.005 1.869-5.077 1.869-3.168 0-5.645-1.95-6.173-5.443h13.444c1.259 0 2.315-.974 2.315-2.355 0-4.955-3.371-10.56-10.195-10.56-6.133 0-10.479 5.036-10.479 11.169v.081c0 6.62 4.793 11.129 11.007 11.129 3.33 0 5.768-1.097 7.717-2.843zm6.986.121a2.418 2.418 0 0 0 2.437 2.437c1.38 0 2.477-1.056 2.477-2.437v-3.736l3.25-3.087 6.133 8.164c.609.771 1.177 1.096 2.152 1.096 1.26 0 2.315-.893 2.315-2.233 0-.57-.203-1.016-.65-1.625l-6.498-8.489 5.686-5.24c.69-.649 1.097-1.258 1.097-2.07 0-1.178-.853-2.234-2.153-2.234-.853 0-1.462.406-2.112 1.056l-9.22 9.057v-15.84c0-1.34-1.096-2.437-2.477-2.437a2.418 2.418 0 0 0-2.437 2.437v25.181zm23.07-.771v.406c0 1.584 1.218 2.802 2.883 2.802 1.625 0 2.843-1.218 2.843-2.802v-.406c0-1.584-1.218-2.803-2.843-2.803-1.665 0-2.883 1.219-2.883 2.803zm11.331-23.963c0 1.462 1.219 2.437 2.803 2.437 1.584 0 2.802-.975 2.802-2.437v-.244c0-1.462-1.218-2.396-2.802-2.396s-2.803.934-2.803 2.396v.244zm.366 24.734a2.418 2.418 0 0 0 2.437 2.437c1.38 0 2.477-1.056 2.477-2.437V20.641a2.462 2.462 0 0 0-2.477-2.477c-1.381 0-2.437 1.096-2.437 2.477v16.977zm21.526 2.722c6.62 0 11.494-5.077 11.494-11.17v-.08c0-6.134-4.833-11.13-11.413-11.13s-11.453 5.078-11.453 11.21v.082c0 6.092 4.833 11.088 11.372 11.088zm.081-4.306c-3.818 0-6.539-3.127-6.539-6.864v-.08c0-3.737 2.518-6.824 6.458-6.824 3.858 0 6.58 3.127 6.58 6.904v.082c0 3.696-2.519 6.782-6.499 6.782zM23.005 0h27.99C58.73 0 65 6.266 65 14c0 7.732-6.26 14-14.005 14H9V14C9 6.268 15.26 0 23.005 0zM15 22h35.995A7.996 7.996 0 0 0 59 14c0-4.419-3.583-8-8.005-8h-27.99A7.996 7.996 0 0 0 15 14v8z"/><path d="M41.995 50h-27.99C6.27 50 0 43.734 0 36c0-7.732 6.26-14 14.005-14H56v14c0 7.732-6.26 14-14.005 14zM50 28H14.005A7.996 7.996 0 0 0 6 36c0 4.419 3.583 8 8.005 8h27.99A7.996 7.996 0 0 0 50 36v-8z"/></g></svg>